<svg width="21" height="21" viewBox="0 0 21 21" fill="none" xmlns="http://www.w3.org/2000/svg">
<path d="M6.98438 16.7143C7.54688 16.7143 8.01562 16.9174 8.39062 17.3237C8.79688 17.6987 9 18.1674 9 18.7299C9 19.2612 8.79688 19.7299 8.39062 20.1362C8.01562 20.5112 7.54688 20.6987 6.98438 20.6987C6.45312 20.6987 5.98438 20.5112 5.57812 20.1362C5.20312 19.7299 5.01562 19.2612 5.01562 18.7299C5.01562 18.1674 5.20312 17.6987 5.57812 17.3237C5.98438 16.9174 6.45312 16.7143 6.98438 16.7143ZM17.0156 16.7143C17.5469 16.7143 18 16.9174 18.375 17.3237C18.7812 17.6987 18.9844 18.1674 18.9844 18.7299C18.9844 19.2612 18.7812 19.7299 18.375 20.1362C18 20.5112 17.5469 20.6987 17.0156 20.6987C16.4531 20.6987 15.9688 20.5112 15.5625 20.1362C15.1875 19.7299 15 19.2612 15 18.7299C15 18.1674 15.1875 17.6987 15.5625 17.3237C15.9688 16.9174 16.4531 16.7143 17.0156 16.7143ZM8.10938 11.6987L6.98438 13.7143H18.9844V15.7299H6.98438C6.48438 15.7299 6.0625 15.5737 5.71875 15.2612C5.375 14.9487 5.14062 14.5737 5.01562 14.1362C4.92188 13.6674 5 13.1987 5.25 12.7299L6.60938 10.2924L3 2.69867H0.984375V0.729919H4.26562L8.53125 9.72992H15.5625L19.2656 2.69867L21 3.68304L17.2969 10.6674C17.1406 10.9799 16.9062 11.2299 16.5938 11.4174C16.2812 11.6049 15.9375 11.6987 15.5625 11.6987H8.10938ZM12 0.729919L10.5938 2.13617L12.1875 3.72992H8.01562V5.69867H12.1875L10.5938 7.29242L12 8.69867L15.9844 4.71429L12 0.729919Z" fill="black" fill-opacity="0.54"/>
</svg>
